HIERARCHY
ROOT hip
{
  OFFSET 0 0 0
  CHANNELS 6 Xposition Yposition Zposition Zrotation Yrotation Xrotation
  JOINT abdomen
  {
    OFFSET 0 20.6881 -0.73152
    CHANNELS 3 Zrotation Xrotation Yrotation
    JOINT chest
    {
      OFFSET 0 11.7043 -0.48768
      CHANNELS 3 Zrotation Xrotation Yrotation
      JOINT neck
      {
        OFFSET 0 22.1894 -2.19456
        CHANNELS 3 Zrotation Xrotation Yrotation
        JOINT head
        {
          OFFSET -0.24384 7.07133 1.2192
          CHANNELS 3 Zrotation Xrotation Yrotation
          JOINT leftEye
          {
            OFFSET 4.14528 8.04674 8.04672
            CHANNELS 3 Zrotation Xrotation Yrotation
            End Site
            {
              OFFSET 1 0 0
            }
          }
          JOINT rightEye
          {
            OFFSET -3.6576 8.04674 8.04672
            CHANNELS 3 Zrotation Xrotation Yrotation
            End Site
            {
              OFFSET 1 0 0
            }
          }
        }
      }
      JOINT rCollar
      {
        OFFSET -2.68224 19.2634 -4.8768
        CHANNELS 3 Zrotation Xrotation Yrotation
        JOINT rShldr
        {
          OFFSET -8.77824 -1.95073 1.46304
          CHANNELS 3 Zrotation Xrotation Yrotation
          JOINT rForeArm
          {
            OFFSET -28.1742 -1.7115 0.48768
            CHANNELS 3 Zrotation Xrotation Yrotation
            JOINT rHand
            {
              OFFSET -22.5879 0.773209 7.07136
              CHANNELS 3 Zrotation Xrotation Yrotation
              JOINT rThumb1
              {
                OFFSET -1.2192 -0.487915 3.41376
                CHANNELS 3 Zrotation Xrotation Yrotation
                JOINT rThumb2
                {
                  OFFSET -3.37035 -0.52449 3.41376
                  CHANNELS 3 Zrotation Xrotation Yrotation
                  End Site
                  {
                    OFFSET -1.78271 -1.18214 1.43049
                  }
                }
              }
              JOINT rIndex1
              {
                OFFSET -7.75947 0.938293 5.60832
                CHANNELS 3 Zrotation Xrotation Yrotation
                JOINT rIndex2
                {
                  OFFSET -2.54057 -0.884171 1.56538
                  CHANNELS 3 Zrotation Xrotation Yrotation
                  End Site
                  {
                    OFFSET -1.62519 -0.234802 1.16502
                  }
                }
              }
              JOINT rMid1
              {
                OFFSET -8.24714 1.18213 3.41376
                CHANNELS 3 Zrotation Xrotation Yrotation
                JOINT rMid2
                {
                  OFFSET -3.10165 -0.590103 1.0647
                  CHANNELS 3 Zrotation Xrotation Yrotation
                  End Site
                  {
                    OFFSET -2.48547 -0.328903 0.83742
                  }
                }
              }
              JOINT rRing1
              {
                OFFSET -8.82822 0.546677 1.51678
                CHANNELS 3 Zrotation Xrotation Yrotation
                JOINT rRing2
                {
                  OFFSET -2.60934 -0.819778 -0.0198488
                  CHANNELS 3 Zrotation Xrotation Yrotation
                  End Site
                  {
                    OFFSET -2.33842 -0.294052 0.168128
                  }
                }
              }
              JOINT rPinky1
              {
                OFFSET -8.27202 -0.0477905 -0.4584
                CHANNELS 3 Zrotation Xrotation Yrotation
                JOINT rPinky2
                {
                  OFFSET -1.82734 -0.647385 -0.700984
                  CHANNELS 3 Zrotation Xrotation Yrotation
                  End Site
                  {
                    OFFSET -1.69225 -0.51767 -0.607171
                  }
                }
              }
            }
          }
        }
      }
      JOINT lCollar
      {
        OFFSET 2.68224 19.2634 -4.8768
        CHANNELS 3 Zrotation Xrotation Yrotation
        JOINT lShldr
        {
          OFFSET 8.77824 -1.95073 1.46304
          CHANNELS 3 Zrotation Xrotation Yrotation
          JOINT lForeArm
          {
            OFFSET 28.1742 -1.7115 0.48768
            CHANNELS 3 Zrotation Xrotation Yrotation
            JOINT lHand
            {
              OFFSET 22.5879 0.773209 7.07136
              CHANNELS 3 Zrotation Xrotation Yrotation
              JOINT lThumb1
              {
                OFFSET 1.2192 -0.487915 3.41376
                CHANNELS 3 Zrotation Xrotation Yrotation
                JOINT lThumb2
                {
                  OFFSET 3.37035 -0.52449 3.41376
                  CHANNELS 3 Zrotation Xrotation Yrotation
                  End Site
                  {
                    OFFSET 1.78271 -1.18214 1.43049
                  }
                }
              }
              JOINT lIndex1
              {
                OFFSET 7.75947 0.938293 5.60832
                CHANNELS 3 Zrotation Xrotation Yrotation
                JOINT lIndex2
                {
                  OFFSET 2.54057 -0.884171 1.56538
                  CHANNELS 3 Zrotation Xrotation Yrotation
                  End Site
                  {
                    OFFSET 1.62519 -0.234802 1.16502
                  }
                }
              }
              JOINT lMid1
              {
                OFFSET 8.24714 1.18213 3.41376
                CHANNELS 3 Zrotation Xrotation Yrotation
                JOINT lMid2
                {
                  OFFSET 3.10165 -0.590103 1.0647
                  CHANNELS 3 Zrotation Xrotation Yrotation
                  End Site
                  {
                    OFFSET 2.48547 -0.328903 0.83742
                  }
                }
              }
              JOINT lRing1
              {
                OFFSET 8.82822 0.546677 1.51678
                CHANNELS 3 Zrotation Xrotation Yrotation
                JOINT lRing2
                {
                  OFFSET 2.60934 -0.819778 -0.0198488
                  CHANNELS 3 Zrotation Xrotation Yrotation
                  End Site
                  {
                    OFFSET 2.33842 -0.294052 0.168128
                  }
                }
              }
              JOINT lPinky1
              {
                OFFSET 8.27202 -0.0477905 -0.4584
                CHANNELS 3 Zrotation Xrotation Yrotation
                JOINT lPinky2
                {
                  OFFSET 1.82734 -0.647385 -0.700984
                  CHANNELS 3 Zrotation Xrotation Yrotation
                  End Site
                  {
                    OFFSET 1.69225 -0.51767 -0.607171
                  }
                }
              }
            }
          }
        }
      }
    }
  }
  JOINT rButtock
  {
    OFFSET -8.77824 4.35084 1.2192
    CHANNELS 3 Zrotation Xrotation Yrotation
    JOINT rThigh
    {
      OFFSET 0 -1.70687 -2.19456
      CHANNELS 3 Zrotation Xrotation Yrotation
      JOINT rShin
      {
        OFFSET 0 -36.8199 0.73152
        CHANNELS 3 Zrotation Xrotation Yrotation
        JOINT rFoot
        {
          OFFSET 0.73152 -45.1104 -5.12064
          CHANNELS 3 Zrotation Xrotation Yrotation
          End Site
          {
            OFFSET -1.1221 -3.69964 12.103
          }
        }
      }
    }
  }
  JOINT lButtock
  {
    OFFSET 8.77824 4.35084 1.2192
    CHANNELS 3 Zrotation Xrotation Yrotation
    JOINT lThigh
    {
      OFFSET 0 -1.70687 -2.19456
      CHANNELS 3 Zrotation Xrotation Yrotation
      JOINT lShin
      {
        OFFSET 0 -36.8199 0.73152
        CHANNELS 3 Zrotation Xrotation Yrotation
        JOINT lFoot
        {
          OFFSET -0.73152 -45.1104 -5.12064
          CHANNELS 3 Zrotation Xrotation Yrotation
          End Site
          {
            OFFSET 1.1221 -3.69964 12.103
          }
        }
      }
    }
  }
}
MOTION
Frames:	4
Frame Time:	0.00833333
-45.6017 78.7617 83.5965 -168.228 -1.4488 -165.736 7.77255 -5.41955 12.3384 -0.115073 -0.112374 3.45426 3.19081 4.52444 -1.39392 0.798905 -4.82205 -4.40269 -0.0 0.0 0.0 -0.0 0.0 0.0 2.50689e-14 9.38392e-14 1.46085e-13 78.4213 42.5709 -14.2992 -27.2001 -27.0291 62.5135 -0.0696206 -8.15407 -1.15078 -6.87405e-10 -1.31705e-09 7.70658e-10 -1.19434e-09 -2.26527e-09 1.33091e-09 -6.87407e-10 -1.31704e-09 7.70651e-10 7.73091 5.47488 0.417314 -6.87406e-10 -1.31706e-09 7.70656e-10 2.90554 0.965183 0.102902 -6.874e-10 -1.31706e-09 7.70658e-10 10.2786 0.731801 0.0259123 -6.87412e-10 -1.31705e-09 7.70663e-10 2.22167 -0.733487 -0.20892 2.51154e-14 9.38272e-14 1.45691e-13 -86.8622 37.9143 26.444 24.9226 -20.9306 -52.6783 0.192542 -12.4817 1.78218 -7.10843e-10 -6.85252e-10 -1.02487e-09 -1.21773e-09 -1.17523e-09 -1.77435e-09 -7.10847e-10 -6.85251e-10 -1.02485e-09 -7.73091 5.47488 -0.417314 -7.10841e-10 -6.85251e-10 -1.02487e-09 -2.90554 0.965183 -0.102902 -7.10849e-10 -6.85251e-10 -1.02487e-09 -10.2786 0.731801 -0.0259123 -7.1084e-10 -6.85251e-10 -1.02487e-09 -2.22167 -0.733487 0.20892 -2.03217e-16 0.0 -3.88251e-19 3.62622 -14.2034 -18.0296 -0.173536 33.8625 0.870276 -4.39961 -23.5097 -9.12744 2.03217e-16 0.0 3.88251e-19 39.7641 -45.57 47.8834 1.33704 64.6524 -2.1106 9.21719 -14.196 21.7818
-45.9884 78.7825 83.0257 -168.413 -4.4739 -167.164 8.15339 -5.60538 11.7862 0.195168 -0.2196 3.19166 3.02114 4.54069 -1.68544 0.826047 -4.51873 -4.96889 -0.0 0.0 0.0 -0.0 0.0 0.0 -1.03335e-13 6.51558e-14 1.73741e-13 78.5788 40.2431 -15.0702 -27.2677 -27.2744 62.9 -0.139156 -11.3132 -1.60646 -1.72481e-10 -1.37101e-09 4.87754e-10 -3.04997e-10 -2.37076e-09 8.48908e-10 -1.72481e-10 -1.37101e-09 4.87747e-10 7.73091 5.47488 0.417314 -1.72482e-10 -1.37102e-09 4.87751e-10 2.90554 0.965183 0.102902 -1.72476e-10 -1.37102e-09 4.87754e-10 10.2786 0.731801 0.0259123 -1.7249e-10 -1.37101e-09 4.87759e-10 2.22167 -0.733487 -0.20892 -1.03324e-13 6.51481e-14 1.73452e-13 -88.041 37.1237 27.7453 24.8962 -20.8747 -52.5857 0.225695 -13.524 1.93616 1.456e-10 -3.1669e-10 -7.78205e-10 2.57871e-10 -5.42405e-10 -1.34007e-09 1.45594e-10 -3.16691e-10 -7.7819e-10 -7.73091 5.47488 -0.417314 1.45603e-10 -3.16688e-10 -7.78201e-10 -2.90554 0.965183 -0.102902 1.45596e-10 -3.16689e-10 -7.782e-10 -10.2786 0.731801 -0.0259123 1.45605e-10 -3.1669e-10 -7.78207e-10 -2.22167 -0.733487 0.20892 -2.03217e-16 0.0 -3.88251e-19 3.17953 -13.8092 -20.2365 -0.19233 34.8086 0.866368 -3.872 -23.0932 -8.09468 2.03217e-16 0.0 3.88251e-19 38.3227 -45.2387 46.8963 1.24168 63.4959 -2.00822 9.68256 -15.3299 21.9325
-46.2075 78.8356 82.7867 -168.077 -6.247 -167.509 8.51884 -5.72189 11.1758 0.511585 -0.312967 2.91088 2.8297 4.56243 -1.9798 0.886213 -4.25364 -5.53058 -0.0 0.0 0.0 -0.0 0.0 0.0 -2.13162e-13 2.69554e-14 1.78585e-13 78.589 37.8996 -15.807 -27.3236 -27.4838 63.2368 -0.245982 -14.3923 -2.06346 3.469e-10 -1.4603e-09 2.16471e-10 5.92676e-10 -2.53704e-09 3.86342e-10 3.46902e-10 -1.46031e-09 2.16464e-10 7.73091 5.47488 0.417314 3.46899e-10 -1.46031e-09 2.16468e-10 2.90554 0.965183 0.102902 3.46906e-10 -1.46031e-09 2.16471e-10 10.2786 0.731801 0.0259123 3.4689e-10 -1.4603e-09 2.16477e-10 2.22167 -0.733487 -0.20892 -2.13196e-13 2.69524e-14 1.78409e-13 -89.1097 36.3049 28.8842 24.8759 -20.832 -52.5137 0.266018 -14.5957 2.09667 9.22254e-10 9.05668e-11 -5.07538e-10 1.59578e-09 1.57831e-10 -8.65475e-10 9.22245e-10 9.05628e-11 -5.07533e-10 -7.73091 5.47488 -0.417314 9.22256e-10 9.05693e-11 -5.07541e-10 -2.90554 0.965183 -0.102902 9.22251e-10 9.05679e-11 -5.07538e-10 -10.2786 0.731801 -0.0259123 9.22259e-10 9.05666e-11 -5.07547e-10 -2.22167 -0.733487 0.20892 -2.03217e-16 0.0 -3.88251e-19 2.53934 -13.5525 -22.4702 -0.21825 36.1078 0.867831 -3.11299 -22.327 -6.62913 2.03217e-16 0.0 3.88251e-19 36.8216 -44.904 45.6793 1.15865 62.3599 -1.90902 9.94216 -16.4566 21.6509
-46.4556 78.911 82.5998 -167.764 -7.8625 -167.737 8.77207 -5.76984 10.6173 0.819914 -0.381433 2.67521 2.63746 4.55509 -2.25222 0.977041 -4.01871 -6.04327 -0.0 0.0 0.0 -0.0 0.0 0.0 -2.36528e-13 -2.86254e-14 1.33583e-13 78.368 35.7611 -16.377 -27.3518 -27.5923 63.4158 -0.367664 -16.9904 -2.46114 6.47335e-10 -1.48909e-09 5.25618e-11 1.1128e-09 -2.59336e-09 1.05551e-10 6.47338e-10 -1.4891e-09 5.25555e-11 7.73091 5.47488 0.417314 6.47335e-10 -1.4891e-09 5.25587e-11 2.90554 0.965183 0.102902 6.47342e-10 -1.4891e-09 5.25626e-11 10.2786 0.731801 0.0259123 6.47325e-10 -1.4891e-09 5.25682e-11 2.22167 -0.733487 -0.20892 -2.36595e-13 -2.86252e-14 1.33484e-13 -90.063 35.4598 29.8838 24.8548 -20.7877 -52.4396 0.295567 -15.2893 2.20181 1.18868e-09 4.14957e-10 -2.96933e-10 2.05411e-09 7.17314e-10 -5.0036e-10 1.18867e-09 4.14952e-10 -2.96933e-10 -7.73091 5.47488 -0.417314 1.18868e-09 4.1496e-10 -2.9694e-10 -2.90554 0.965183 -0.102902 1.18868e-09 4.14959e-10 -2.96936e-10 -10.2786 0.731801 -0.0259123 1.18869e-09 4.14957e-10 -2.96946e-10 -2.22167 -0.733487 0.20892 -2.03217e-16 0.0 -3.88251e-19 1.4816 -13.7231 -24.4745 -0.258284 38.0536 0.885159 -2.02879 -20.8806 -4.49679 2.03217e-16 0.0 3.88251e-19 35.2111 -44.5712 44.0799 1.08623 61.2787 -1.81254 9.92479 -17.5638 20.8505
